<svg width="65" height="46" viewBox="0 0 65 46" fill="none" xmlns="http://www.w3.org/2000/svg">
<g clip-path="url(#clip0)">
<path d="M58.8627 2.66633V42.904C58.8627 44.3766 60.0565 45.5704 61.5291 45.5704C63.0018 45.5704 64.1956 44.3766 64.1956 42.904V2.66633C64.1956 1.1937 63.0018 -9.53674e-05 61.5291 -9.53674e-05C60.0565 -9.53674e-05 58.8627 1.1937 58.8627 2.66633Z" fill="#E9EDF7"/>
<path d="M58.8627 37.37V42.904C58.8627 44.3766 60.0565 45.5704 61.5291 45.5704C63.0018 45.5704 64.1956 44.3766 64.1956 42.904V37.37C64.1956 35.8974 63.0018 34.7036 61.5291 34.7036C60.0565 34.7036 58.8627 35.8974 58.8627 37.37Z" fill="#4318FF"/>
<path d="M44.3439 2.66631V42.904C44.3439 44.3766 45.5377 45.5704 47.0103 45.5704C48.4829 45.5704 49.6767 44.3766 49.6767 42.904V2.66631C49.6767 1.19369 48.4829 -9.91821e-05 47.0103 -9.91821e-05C45.5377 -9.91821e-05 44.3439 1.19369 44.3439 2.66631Z" fill="#E9EDF7"/>
<path d="M44.3439 6.87283V42.904C44.3439 44.3766 45.5377 45.5704 47.0103 45.5704H47.0103C48.483 45.5704 49.6768 44.3766 49.6768 42.904V6.87283C49.6768 5.4002 48.483 4.2064 47.0103 4.2064C45.5377 4.2064 44.3439 5.4002 44.3439 6.87283Z" fill="#4318FF"/>
<path d="M29.8259 2.66632L29.8259 42.904C29.8259 44.3766 31.0197 45.5704 32.4923 45.5704C33.965 45.5704 35.1588 44.3766 35.1588 42.904V2.66632C35.1588 1.1937 33.965 -0.000102997 32.4923 -0.000102997C31.0197 -0.000102997 29.8259 1.1937 29.8259 2.66632Z" fill="#E9EDF7"/>
<path d="M29.8259 16.688V42.904C29.8259 44.3766 31.0197 45.5704 32.4923 45.5704H32.4923C33.965 45.5704 35.1588 44.3766 35.1588 42.904V16.688C35.1588 15.2154 33.965 14.0216 32.4923 14.0216C31.0197 14.0216 29.8259 15.2154 29.8259 16.688Z" fill="#4318FF"/>
<path d="M15.3079 2.66634L15.3079 42.904C15.3079 44.3766 16.5017 45.5704 17.9743 45.5704C19.447 45.5704 20.6408 44.3766 20.6408 42.904L20.6408 2.66634C20.6408 1.19371 19.447 -9.91821e-05 17.9743 -9.91821e-05C16.5017 -9.91821e-05 15.3079 1.19371 15.3079 2.66634Z" fill="#E9EDF7"/>
<path d="M15.3079 24.7505L15.3079 42.904C15.3079 44.3766 16.5017 45.5704 17.9743 45.5704H17.9743C19.447 45.5704 20.6408 44.3766 20.6408 42.904V24.7505C20.6408 23.2779 19.447 22.0841 17.9743 22.0841C16.5017 22.0841 15.3079 23.2779 15.3079 24.7505Z" fill="#4318FF"/>
<path d="M0.789063 2.66634L0.789063 42.904C0.789063 44.3766 1.98287 45.5704 3.4555 45.5704C4.92813 45.5704 6.12193 44.3766 6.12193 42.904L6.12193 2.66634C6.12193 1.19371 4.92813 -9.91821e-05 3.4555 -9.91821e-05C1.98287 -9.91821e-05 0.789063 1.19371 0.789063 2.66634Z" fill="#E9EDF7"/>
<path d="M0.789063 10.7288L0.789063 42.904C0.789063 44.3766 1.98287 45.5704 3.4555 45.5704C4.92814 45.5704 6.12194 44.3766 6.12194 42.904L6.12194 10.7288C6.12194 9.25621 4.92814 8.0624 3.4555 8.0624C1.98287 8.0624 0.789063 9.25621 0.789063 10.7288Z" fill="#4318FF"/>
</g>
<defs>
<clipPath id="clip0">
<rect width="65" height="46" fill="white"/>
</clipPath>
</defs>
</svg>
